<svg xmlns="http://www.w3.org/2000/svg" width="900" height="620" viewBox="0 0 900 620">
<rect width="100%" height="100%" fill="#fffaf0"/>
<style>
text { font-family: ui-sans-serif, Segoe UI, Arial, sans-serif; fill: #172033; }
.title { font-size: 24px; font-weight: 800; }
.label { font-size: 13px; fill: #526176; }
.small { font-size: 11px; fill: #334155; }
.axis { stroke: #526176; stroke-width: 1.3; }
</style>
<text x="40" y="42" class="title">PCA: airway samples</text>
<line x1="90" y1="540" x2="820" y2="540" class="axis"/>
<line x1="90" y1="80" x2="90" y2="540" class="axis"/>
<text x="390" y="590" class="label">PC1 (26.4% variance)</text>
<text x="20" y="330" class="label" transform="rotate(-90 20 330)">PC2 (21.5% variance)</text>
<circle cx="162.1" cy="132.7" r="10" fill="#2d7dd2" opacity=".88"/>
<text x="175.1" y="136.7" class="small">SRR1039508 (untrt)</text>
<circle cx="604.2" cy="199.5" r="10" fill="#d94b45" opacity=".88"/>
<text x="617.2" y="203.5" class="small">SRR1039509 (trt)</text>
<circle cx="246.7" cy="176.7" r="10" fill="#2d7dd2" opacity=".88"/>
<text x="259.7" y="180.7" class="small">SRR1039512 (untrt)</text>
<circle cx="780.0" cy="219.5" r="10" fill="#d94b45" opacity=".88"/>
<text x="793.0" y="223.5" class="small">SRR1039513 (trt)</text>
<circle cx="130.0" cy="431.9" r="10" fill="#2d7dd2" opacity=".88"/>
<text x="143.0" y="435.9" class="small">SRR1039516 (untrt)</text>
<circle cx="514.5" cy="500.0" r="10" fill="#d94b45" opacity=".88"/>
<text x="527.5" y="504.0" class="small">SRR1039517 (trt)</text>
<circle cx="221.3" cy="110.0" r="10" fill="#2d7dd2" opacity=".88"/>
<text x="234.3" y="114.0" class="small">SRR1039520 (untrt)</text>
<circle cx="737.1" cy="181.9" r="10" fill="#d94b45" opacity=".88"/>
<text x="750.1" y="185.9" class="small">SRR1039521 (trt)</text>
</svg>